<svg width="233" height="160" viewBox="0 0 233 160" fill="none" xmlns="http://www.w3.org/2000/svg">
<path d="M165 55.1549C165 25.3093 143.652 0.972491 117.235 0.443496C116.944 0.434376 116.652 0.431335 116.357 0.431335C116.062 0.431335 115.77 0.437416 115.478 0.443496C89.0588 0.972491 67.7136 25.3093 67.7136 55.1549C67.7136 85.0005 89.0619 109.337 115.478 109.866C115.77 109.875 116.062 109.878 116.357 109.878C116.652 109.878 116.944 109.872 117.235 109.866C143.655 109.337 165 85.0005 165 55.1549V55.1549ZM145.239 32.3534V77.9564C145.239 93.6164 132.713 106.404 117.153 106.826C116.889 106.832 116.621 106.838 116.357 106.838C116.092 106.838 115.825 106.832 115.56 106.826C100.001 106.404 87.4749 93.6134 87.4749 77.9564V32.3534C87.4749 16.6934 100.001 3.90628 115.56 3.48369C115.825 3.47761 116.092 3.47153 116.357 3.47153C116.621 3.47153 116.889 3.47761 117.153 3.48369C132.713 3.90628 145.239 16.6964 145.239 32.3534ZM70.7538 55.1549C70.7538 36.5124 79.5096 20.147 92.6007 11.0538C87.5266 16.7086 84.4347 24.1753 84.4347 32.3534V77.9564C84.4347 86.1345 87.5266 93.6012 92.6007 99.256C79.5065 90.1628 70.7538 73.7974 70.7538 55.1549ZM140.113 99.256C145.187 93.6012 148.279 86.1345 148.279 77.9564V32.3534C148.279 24.1753 145.187 16.7086 140.113 11.0538C153.207 20.147 161.96 36.5124 161.96 55.1549C161.96 73.7974 153.204 90.1628 140.113 99.256Z" fill="#E9CE91"/>
<path d="M138.301 25.2667C135.017 27.5043 131.986 30.1797 129.271 33.2077C126.207 27.4313 122.185 22.2873 117.36 18.0523L116.357 17.1737L115.353 18.0523C110.529 22.2843 106.509 27.4313 103.442 33.2107C100.724 30.1827 97.6928 27.5043 94.4094 25.2667L92.032 23.6463V53.6318H140.675V23.6493L138.298 25.2698L138.301 25.2667ZM95.0752 29.5169C97.5712 31.4687 99.8818 33.7033 101.983 36.1689C99.9122 40.6866 98.4012 45.5357 97.5135 50.5976H95.0722V29.5169H95.0752ZM104.123 38.8503C106.768 42.4104 108.996 46.3626 110.714 50.5946H100.608C101.362 46.5055 102.548 42.5654 104.126 38.8503H104.123ZM113.982 50.5946C111.915 45.1648 109.054 40.1363 105.567 35.728C107.996 30.885 111.115 26.4889 114.837 22.719V50.5946H113.982ZM117.877 22.719C121.601 26.4919 124.72 30.888 127.149 35.728C123.662 40.1363 120.798 45.1648 118.731 50.5946H117.877V22.719ZM128.59 38.8503C130.165 42.5654 131.351 46.5055 132.105 50.5946H121.999C123.714 46.3626 125.945 42.4104 128.59 38.8503V38.8503ZM135.197 50.5946C134.309 45.5327 132.798 40.6836 130.728 36.1658C132.831 33.7033 135.142 31.4657 137.635 29.5169V50.5946H135.194H135.197Z" fill="#E9CE91"/>
<path d="M137.638 56.675H92.0349V86.6605L94.4123 85.04C97.6958 82.8024 100.727 80.124 103.445 77.096C106.512 82.8754 110.531 88.0225 115.356 92.2544L116.36 93.133L117.363 92.2544C122.191 88.0194 126.21 82.8754 129.277 77.099C131.995 80.1271 135.026 82.8055 138.307 85.04L140.684 86.6605V56.675H137.644H137.638ZM95.0751 80.7929V59.7152H97.5164C98.4041 64.7771 99.9151 69.6262 101.985 74.144C99.8817 76.6065 97.5711 78.8441 95.0782 80.7929H95.0751ZM100.605 59.7152H110.711C108.996 63.9471 106.768 67.8994 104.12 71.4595C102.542 67.7443 101.359 63.8043 100.602 59.7152H100.605ZM114.836 87.5908C111.115 83.8209 107.993 79.4217 105.567 74.5818C109.054 70.1735 111.915 65.145 113.982 59.7152H114.836V87.5908V87.5908ZM117.877 87.5908V59.7152H118.731C120.798 65.145 123.659 70.1765 127.149 74.5818C124.723 79.4217 121.601 83.8179 117.877 87.5908ZM128.59 71.4595C125.945 67.8994 123.714 63.9471 121.999 59.7152H132.105C131.351 63.8073 130.165 67.7443 128.59 71.4595V71.4595ZM137.638 80.7929C135.145 78.8411 132.831 76.6065 130.731 74.144C132.801 69.6262 134.312 64.7771 135.2 59.7152H137.641V80.7929H137.638Z" fill="#E9CE91"/>
<path d="M116.356 8.0318L117.132 10.3271L119.555 10.3545L117.612 11.8016L118.333 14.1122L116.356 12.7107L114.38 14.1122L115.101 11.8016L113.158 10.3545L115.581 10.3271L116.356 8.0318Z" fill="#E9CE91"/>
<path d="M116.356 102.278L117.132 99.9826L119.555 99.9553L117.612 98.5081L118.333 96.1976L116.356 97.5991L114.38 96.1976L115.101 98.5081L113.158 99.9553L115.581 99.9826L116.356 102.278Z" fill="#E9CE91"/>
<path d="M107.218 10.2816L107.993 12.577L110.416 12.6043L108.473 14.0515L109.194 16.3651L107.218 14.9635L105.242 16.3651L105.965 14.0515L104.022 12.6043L106.442 12.577L107.218 10.2816Z" fill="#E9CE91"/>
<path d="M98.1215 14.8419L98.8968 17.1372L101.32 17.1646L99.3771 18.6117L100.098 20.9253L98.1215 19.5238L96.1454 20.9253L96.869 18.6117L94.9263 17.1646L97.3463 17.1372L98.1215 14.8419Z" fill="#E9CE91"/>
<path d="M125.495 10.2816L124.72 12.577L122.297 12.6043L124.24 14.0515L123.519 16.3651L125.495 14.9635L127.472 16.3651L126.748 14.0515L128.691 12.6043L126.271 12.577L125.495 10.2816Z" fill="#E9CE91"/>
<path d="M134.592 14.8419L133.817 17.1372L131.394 17.1646L133.336 18.6117L132.616 20.9253L134.592 19.5238L136.568 20.9253L135.844 18.6117L137.787 17.1646L135.367 17.1372L134.592 14.8419Z" fill="#E9CE91"/>
<path d="M14.2304 129C33.2043 129 33.2043 159.449 14.2304 159.449C-4.74347 159.449 -4.74347 129 14.2304 129ZM14.2304 158.44C26.7253 158.44 26.7253 130.009 14.2304 130.009C1.73558 130.009 1.73775 158.44 14.2304 158.44Z" fill="white"/>
<path d="M43.7482 129.505C56.6237 129.505 57.5981 144.518 46.6713 146.791C52.0499 147.8 52.6436 155.917 57.0043 158.944H53.0242C46.841 158.944 46.4604 150.575 42.2671 147.084H37.9043V153.476C37.9043 155.453 38.4132 157.43 39.8095 158.944H31.0859C32.4409 157.43 32.9498 155.453 32.9498 153.476V135.014C32.9498 132.995 32.4409 131.018 31.0859 129.505H43.7482ZM37.9043 130.514V146.075H43.1132C51.5844 146.075 51.5409 130.514 43.2393 130.514H37.9021H37.9043Z" fill="white"/>
<path d="M64.4576 129.505L80.2974 154.318C80.3409 154.024 80.3409 153.729 80.3409 153.476V135.014C80.3409 132.995 79.832 131.018 78.477 129.505H83.2205C81.8655 131.018 81.3153 132.995 81.3153 135.014V153.476C81.3153 154.612 81.5263 155.747 81.909 156.8L83.3075 158.944H77.42L61.5389 134.172C61.5389 134.424 61.4975 134.718 61.4975 135.014V153.476C61.4975 155.453 62.0478 157.43 63.4028 158.944H58.6593C60.0142 157.43 60.5232 155.453 60.5232 153.476V135.014C60.5232 133.837 60.3535 132.7 59.9294 131.649L58.5745 129.505H64.4619H64.4576Z" fill="white"/>
<path d="M84.4036 158.944C86.3523 157.43 87.6638 155.453 88.4685 153.476L98.0402 129.505H100.115L109.687 153.476C110.492 155.453 111.805 157.43 113.795 158.944H105.072C105.835 157.43 105.581 155.453 104.776 153.476L104.182 152.004H90.0366L89.4863 153.476C88.7229 155.495 88.3858 157.43 89.147 158.944H84.4036ZM90.4172 151.038H103.799L97.1507 134.3L90.4172 151.038V151.038Z" fill="white"/>
<path d="M114.006 158.944C115.827 157.43 116.929 155.453 117.48 153.476L124.383 129.505H127.221L133.87 151.752L139.842 129.505H142.85L149.244 153.476C149.753 155.453 150.854 157.43 152.633 158.944H143.909C144.884 157.43 144.84 155.453 144.333 153.476L139.379 135.014V134.972L132.941 158.944H131.121L123.922 135.014C123.922 134.929 123.878 134.846 123.878 134.803L118.456 153.476C117.862 155.453 117.821 157.43 118.752 158.944H114.009H114.006Z" fill="white"/>
<path d="M155.763 153.476V135.014C155.763 132.995 155.254 131.018 153.899 129.505H173.634L174.989 133.248C172.744 131.271 169.23 130.472 166.265 130.472H160.717V142.374H164.571C167.155 142.332 170.713 141.701 172.237 140.314V145.403C170.713 144.016 167.155 143.385 164.571 143.344H160.717V157.978H165.756C169.949 157.937 174.312 157.011 176.683 153.563L174.989 158.946H153.896C155.251 157.433 155.76 155.456 155.76 153.479L155.763 153.476Z" fill="white"/>
<path d="M184.478 129.505L200.318 154.318C200.361 154.024 200.361 153.729 200.361 153.476V135.014C200.361 132.995 199.852 131.018 198.497 129.505H203.241C201.886 131.018 201.336 132.995 201.336 135.014V153.476C201.336 154.612 201.547 155.747 201.929 156.8L203.328 158.944H197.44L181.559 134.172C181.559 134.424 181.518 134.718 181.518 135.014V153.476C181.518 155.453 182.068 157.43 183.423 158.944H178.68C180.035 157.43 180.543 155.453 180.543 153.476V135.014C180.543 133.837 180.374 132.7 179.95 131.649L178.595 129.505H184.482H184.478Z" fill="white"/>
<path d="M205.992 129.505H231.319L232.717 133.248C230.473 131.271 226.914 130.472 223.993 130.472H221.114V153.476C221.114 155.453 221.623 157.43 223.019 158.944H214.296C215.651 157.43 216.159 155.453 216.159 153.476V130.472H213.321C210.398 130.472 206.842 131.271 204.598 133.248L205.996 129.505H205.992Z" fill="white"/>
</svg>
