<svg width="233" height="188" viewBox="0 0 233 188" fill="none" xmlns="http://www.w3.org/2000/svg">
<path d="M175.161 66.1549C175.161 30.0747 149.353 0.654198 117.419 0.0147011C117.066 0.00367527 116.713 0 116.357 0C116 0 115.648 0.00735054 115.295 0.0147011C83.3566 0.654198 57.5525 30.0747 57.5525 66.1549C57.5525 102.235 83.3602 131.656 115.295 132.295C115.648 132.306 116 132.31 116.357 132.31C116.713 132.31 117.066 132.302 117.419 132.295C149.357 131.656 175.161 102.235 175.161 66.1549V66.1549ZM151.272 38.5903V93.7194C151.272 112.651 136.13 128.109 117.32 128.62C117 128.627 116.677 128.634 116.357 128.634C116.037 128.634 115.714 128.627 115.394 128.62C96.5839 128.109 81.4418 112.647 81.4418 93.7194V38.5903C81.4418 19.659 96.5839 4.20084 115.394 3.68997C115.714 3.68262 116.037 3.67527 116.357 3.67527C116.677 3.67527 117 3.68262 117.32 3.68997C136.13 4.20084 151.272 19.6627 151.272 38.5903ZM61.2278 66.1549C61.2278 43.6181 71.8125 23.8341 87.6383 12.8414C81.5042 19.6774 77.7665 28.7039 77.7665 38.5903V93.7194C77.7665 103.606 81.5042 112.632 87.6383 119.468C71.8089 108.476 61.2278 88.6916 61.2278 66.1549ZM145.075 119.468C151.209 112.632 154.947 103.606 154.947 93.7194V38.5903C154.947 28.7039 151.209 19.6774 145.075 12.8414C160.905 23.8341 171.486 43.6181 171.486 66.1549C171.486 88.6916 160.901 108.476 145.075 119.468Z" fill="url(#paint0_linear_294_332)"/>
<path d="M142.885 30.0233C138.915 32.7283 135.251 35.9626 131.969 39.6231C128.264 32.6401 123.402 26.4216 117.569 21.3019L116.357 20.2397L115.144 21.3019C109.311 26.4179 104.452 32.6401 100.744 39.6268C97.4583 35.9662 93.794 32.7283 89.8247 30.0233L86.9507 28.0644V64.3136H145.755V28.0681L142.881 30.027L142.885 30.0233ZM90.6296 35.1613C93.647 37.5209 96.4402 40.2222 98.9799 43.2028C96.477 48.6643 94.6504 54.5264 93.5772 60.6457H90.626V35.1613H90.6296ZM101.567 46.4444C104.765 50.7482 107.459 55.526 109.535 60.642H97.3186C98.2301 55.6988 99.6634 50.9356 101.571 46.4444H101.567ZM113.486 60.642C110.987 54.078 107.529 47.9991 103.313 42.6699C106.25 36.8152 110.02 31.5008 114.519 26.9434V60.642H113.486ZM118.194 26.9434C122.696 31.5045 126.467 36.8189 129.404 42.6699C125.188 47.9991 121.726 54.078 119.227 60.642H118.194V26.9434ZM131.146 46.4444C133.05 50.9356 134.483 55.6988 135.394 60.642H123.178C125.251 55.526 127.948 50.7482 131.146 46.4444V46.4444ZM139.132 60.642C138.059 54.5227 136.232 48.6606 133.73 43.1992C136.273 40.2222 139.066 37.5172 142.08 35.1613V60.642H139.129H139.132Z" fill="url(#paint1_linear_294_332)"/>
<path d="M142.083 67.9925H86.9543V104.242L89.8284 102.283C93.7977 99.5778 97.4619 96.3399 100.748 92.6793C104.456 99.666 109.315 105.888 115.147 111.004L116.36 112.066L117.573 111.004C123.409 105.885 128.268 99.666 131.976 92.683C135.262 96.3435 138.926 99.5814 142.892 102.283L145.766 104.242V67.9925H142.091H142.083ZM90.6296 97.1484V71.6678H93.5809C94.654 77.7871 96.4807 83.6492 98.9835 89.1106C96.4402 92.0876 93.647 94.7926 90.6333 97.1484H90.6296ZM97.3149 71.6678H109.532C107.459 76.7837 104.765 81.5616 101.564 85.8653C99.6561 81.3742 98.2264 76.611 97.3113 71.6678H97.3149ZM114.519 105.366C110.02 100.809 106.246 95.4909 103.313 89.6398C107.529 84.3107 110.987 78.2318 113.486 71.6678H114.519V105.366V105.366ZM118.194 105.366V71.6678H119.227C121.726 78.2318 125.185 84.3144 129.404 89.6398C126.471 95.4909 122.696 100.805 118.194 105.366ZM131.146 85.8653C127.948 81.5616 125.251 76.7837 123.178 71.6678H135.394C134.483 76.6147 133.05 81.3742 131.146 85.8653V85.8653ZM142.083 97.1484C139.07 94.7889 136.273 92.0876 133.733 89.1106C136.236 83.6492 138.063 77.7871 139.136 71.6678H142.087V97.1484H142.083Z" fill="url(#paint2_linear_294_332)"/>
<path d="M116.357 9.18817L117.294 11.963L120.223 11.9961L117.875 13.7455L118.746 16.5387L116.357 14.8444L113.968 16.5387L114.839 13.7455L112.49 11.9961L115.419 11.963L116.357 9.18817Z" fill="white"/>
<path d="M116.357 123.122L117.294 120.347L120.223 120.314L117.875 118.564L118.746 115.771L116.357 117.465L113.968 115.771L114.839 118.564L112.49 120.314L115.419 120.347L116.357 123.122Z" fill="white"/>
<path d="M105.309 11.9079L106.246 14.6827L109.175 14.7158L106.827 16.4652L107.698 19.2621L105.309 17.5678L102.92 19.2621L103.795 16.4652L101.446 14.7158L104.372 14.6827L105.309 11.9079Z" fill="white"/>
<path d="M94.3124 17.4208L95.2496 20.1956L98.1788 20.2287L95.8303 21.9781L96.7013 24.775L94.3124 23.0807L91.9235 24.775L92.7982 21.9781L90.4497 20.2287L93.3752 20.1956L94.3124 17.4208Z" fill="white"/>
<path d="M127.404 11.9079L126.467 14.6827L123.538 14.7158L125.887 16.4652L125.016 19.2621L127.404 17.5678L129.793 19.2621L128.919 16.4652L131.267 14.7158L128.342 14.6827L127.404 11.9079Z" fill="white"/>
<path d="M138.401 17.4208L137.464 20.1956L134.535 20.2287L136.883 21.9781L136.012 24.775L138.401 23.0807L140.79 24.775L139.915 21.9781L142.264 20.2287L139.338 20.1956L138.401 17.4208Z" fill="white"/>
<path d="M14.2304 156.835C33.2043 156.835 33.2043 187.283 14.2304 187.283C-4.74347 187.283 -4.74347 156.835 14.2304 156.835ZM14.2304 186.274C26.7253 186.274 26.7253 157.844 14.2304 157.844C1.73558 157.844 1.73775 186.274 14.2304 186.274Z" fill="white"/>
<path d="M43.7482 157.339C56.6237 157.339 57.5981 172.353 46.6713 174.625C52.0499 175.635 52.6436 183.751 57.0043 186.779H53.0242C46.841 186.779 46.4604 178.41 42.2671 174.919H37.9043V181.311C37.9043 183.288 38.4132 185.265 39.8095 186.779H31.0859C32.4409 185.265 32.9498 183.288 32.9498 181.311V162.848C32.9498 160.83 32.4409 158.853 31.0859 157.339H43.7482ZM37.9043 158.348V173.91H43.1132C51.5844 173.91 51.5409 158.348 43.2393 158.348H37.9021H37.9043Z" fill="white"/>
<path d="M64.4576 157.339L80.2974 182.153C80.3409 181.859 80.3409 181.563 80.3409 181.311V162.848C80.3409 160.83 79.832 158.853 78.477 157.339H83.2205C81.8655 158.853 81.3153 160.83 81.3153 162.848V181.311C81.3153 182.446 81.5263 183.582 81.909 184.634L83.3075 186.779H77.42L61.5389 162.007C61.5389 162.259 61.4975 162.553 61.4975 162.848V181.311C61.4975 183.288 62.0478 185.265 63.4028 186.779H58.6593C60.0142 185.265 60.5232 183.288 60.5232 181.311V162.848C60.5232 161.672 60.3535 160.534 59.9294 159.484L58.5745 157.339H64.4619H64.4576Z" fill="white"/>
<path d="M84.4036 186.779C86.3523 185.265 87.6638 183.288 88.4685 181.311L98.0402 157.339H100.115L109.687 181.311C110.492 183.288 111.805 185.265 113.795 186.779H105.072C105.835 185.265 105.581 183.288 104.776 181.311L104.182 179.839H90.0366L89.4863 181.311C88.7229 183.329 88.3858 185.265 89.147 186.779H84.4036ZM90.4172 178.873H103.799L97.1507 162.135L90.4172 178.873V178.873Z" fill="white"/>
<path d="M114.006 186.779C115.827 185.265 116.929 183.288 117.48 181.311L124.383 157.339H127.221L133.87 179.586L139.842 157.339H142.85L149.244 181.311C149.753 183.288 150.854 185.265 152.633 186.779H143.909C144.884 185.265 144.84 183.288 144.333 181.311L139.379 162.848V162.807L132.941 186.779H131.121L123.922 162.848C123.922 162.764 123.878 162.681 123.878 162.637L118.456 181.311C117.862 183.288 117.821 185.265 118.752 186.779H114.009H114.006Z" fill="white"/>
<path d="M155.763 181.311V162.848C155.763 160.83 155.254 158.853 153.899 157.339H173.634L174.989 161.082C172.744 159.105 169.23 158.307 166.265 158.307H160.717V170.208H164.571C167.155 170.167 170.713 169.536 172.237 168.149V173.238C170.713 171.85 167.155 171.22 164.571 171.178H160.717V185.813H165.756C169.949 185.772 174.312 184.845 176.683 181.398L174.989 186.781H153.896C155.251 185.267 155.76 183.29 155.76 181.313L155.763 181.311Z" fill="white"/>
<path d="M184.478 157.339L200.318 182.153C200.361 181.859 200.361 181.563 200.361 181.311V162.848C200.361 160.83 199.852 158.853 198.497 157.339H203.241C201.886 158.853 201.336 160.83 201.336 162.848V181.311C201.336 182.446 201.547 183.582 201.929 184.634L203.328 186.779H197.44L181.559 162.007C181.559 162.259 181.518 162.553 181.518 162.848V181.311C181.518 183.288 182.068 185.265 183.423 186.779H178.68C180.035 185.265 180.543 183.288 180.543 181.311V162.848C180.543 161.672 180.374 160.534 179.95 159.484L178.595 157.339H184.482H184.478Z" fill="white"/>
<path d="M205.992 157.339H231.319L232.717 161.082C230.473 159.105 226.914 158.307 223.993 158.307H221.114V181.311C221.114 183.288 221.623 185.265 223.019 186.779H214.296C215.651 185.265 216.159 183.288 216.159 181.311V158.307H213.321C210.398 158.307 206.842 159.105 204.598 161.082L205.996 157.339H205.992Z" fill="white"/>
<defs>
<linearGradient id="paint0_linear_294_332" x1="138.967" y1="130.27" x2="95.4739" y2="6.94626" gradientUnits="userSpaceOnUse">
<stop stop-color="#AC6C49"/>
<stop offset="1" stop-color="#EAD093"/>
</linearGradient>
<linearGradient id="paint1_linear_294_332" x1="145.229" y1="128.061" x2="101.707" y2="4.65292" gradientUnits="userSpaceOnUse">
<stop stop-color="#AC6C49"/>
<stop offset="1" stop-color="#EAD093"/>
</linearGradient>
<linearGradient id="paint2_linear_294_332" x1="132.708" y1="132.479" x2="89.1852" y2="9.07054" gradientUnits="userSpaceOnUse">
<stop stop-color="#AC6C49"/>
<stop offset="1" stop-color="#EAD093"/>
</linearGradient>
</defs>
</svg>
