<svg width="1440" height="282" viewBox="0 0 1440 282" fill="none" xmlns="http://www.w3.org/2000/svg">
<g clip-path="url(#clip0_123_640)">
<path d="M374.355 65.7042C374.355 29.1453 406.255 1.22461 406.255 1.22461C406.255 1.22461 438.156 29.1453 438.156 65.7042" stroke="#CC9461" stroke-width="3" stroke-miterlimit="10"/>
<path d="M394.779 65.7042C394.779 38.3681 362.879 17.9229 362.879 17.9229V65.7042H449.619V17.929C449.619 17.929 417.719 38.3742 417.719 65.7104" stroke="#CC9461" stroke-width="3" stroke-miterlimit="10"/>
<path d="M374.355 73.2656C374.355 109.825 406.255 137.93 406.255 137.93C406.255 137.93 438.156 110.009 438.156 73.4502" stroke="#CC9461" stroke-width="3" stroke-miterlimit="10"/>
<path d="M394.779 73.4502C394.779 100.786 362.879 121.232 362.879 121.232V73.4502H449.619V121.232C449.619 121.232 417.719 100.602 417.719 73.2656" stroke="#CC9461" stroke-width="3" stroke-miterlimit="10"/>
<path d="M406.255 1.22461V65.7042" stroke="#CC9461" stroke-width="3" stroke-miterlimit="10"/>
<path d="M406.255 73.8315V138.311" stroke="#CC9461" stroke-width="3" stroke-miterlimit="10"/>
<path d="M467.129 174.046C467.129 137.487 499.029 109.566 499.029 109.566C499.029 109.566 530.93 137.487 530.93 174.046" stroke="#CC9461" stroke-width="3" stroke-miterlimit="10"/>
<path d="M487.553 174.046C487.553 146.709 455.653 126.264 455.653 126.264V174.046H542.393V126.264C542.393 126.264 510.493 146.709 510.493 174.046" stroke="#CC9461" stroke-width="3" stroke-miterlimit="10"/>
<path d="M467.129 181.607C467.129 218.166 499.029 246.272 499.029 246.272C499.029 246.272 530.93 218.351 530.93 181.792" stroke="#CC9461" stroke-width="3" stroke-miterlimit="10"/>
<path d="M487.553 181.792C487.553 209.128 455.653 229.573 455.653 229.573V181.792H542.393V229.573C542.393 229.573 510.493 208.944 510.493 181.607" stroke="#CC9461" stroke-width="3" stroke-miterlimit="10"/>
<path d="M499.029 109.566V174.046" stroke="#CC9461" stroke-width="3" stroke-miterlimit="10"/>
<path d="M499.029 182.167V246.647" stroke="#CC9461" stroke-width="3" stroke-miterlimit="10"/>
<path d="M512.553 57.6871C512.553 49.8785 506.226 43.5483 498.42 43.5483C490.615 43.5483 484.288 49.8785 484.288 57.6871V79.2521C484.288 87.0607 490.615 93.3908 498.42 93.3908C506.226 93.3908 512.553 87.0607 512.553 79.2521V57.6871Z" stroke="#CC9461" stroke-width="3" stroke-miterlimit="10"/>
<path d="M498.42 93.6431C510.6 93.6431 520.474 82.3739 520.474 68.4727C520.474 54.5714 510.6 43.3022 498.42 43.3022C486.24 43.3022 476.366 54.5714 476.366 68.4727C476.366 82.3739 486.24 93.6431 498.42 93.6431Z" stroke="#CC9461" stroke-width="3" stroke-miterlimit="10"/>
<path d="M498.42 65.2305L498.507 65.7534C498.734 67.1009 499.786 68.1591 501.133 68.3806L501.655 68.4668L501.133 68.5529C499.786 68.7805 498.728 69.8326 498.507 71.1801L498.42 71.703L498.334 71.1801C498.107 69.8326 497.055 68.7744 495.708 68.5529L495.186 68.4668L495.708 68.3806C497.055 68.153 498.113 67.1009 498.334 65.7534L498.42 65.2305Z" fill="#CC9461" stroke="#CC9461" stroke-miterlimit="10"/>
<path d="M236.133 166.951C236.133 159.143 229.805 152.812 222 152.812C214.195 152.812 207.867 159.143 207.867 166.951V188.516C207.867 196.325 214.195 202.655 222 202.655C229.805 202.655 236.133 196.325 236.133 188.516V166.951Z" stroke="#CC9461" stroke-width="3" stroke-miterlimit="10"/>
<path d="M222.006 202.907C234.186 202.907 244.06 191.638 244.06 177.737C244.06 163.836 234.186 152.566 222.006 152.566C209.826 152.566 199.952 163.836 199.952 177.737C199.952 191.638 209.826 202.907 222.006 202.907Z" stroke="#CC9461" stroke-width="3" stroke-miterlimit="10"/>
<path d="M222.006 174.494L222.093 175.017C222.32 176.365 223.372 177.423 224.719 177.644L225.241 177.73L224.719 177.817C223.372 178.044 222.314 179.096 222.093 180.444L222.006 180.967L221.92 180.444C221.693 179.096 220.641 178.038 219.294 177.817L218.771 177.73L219.294 177.644C220.641 177.417 221.699 176.365 221.92 175.017L222.006 174.494Z" fill="#CC9461" stroke="#CC9461" stroke-miterlimit="10"/>
<path d="M50.4253 166.951C50.4253 159.143 44.0978 152.812 36.2925 152.812C28.4871 152.812 22.1597 159.143 22.1597 166.951V188.516C22.1597 196.325 28.4871 202.655 36.2925 202.655C44.0978 202.655 50.4253 196.325 50.4253 188.516V166.951Z" stroke="#CC9461" stroke-width="3" stroke-miterlimit="10"/>
<path d="M36.2924 202.907C48.4725 202.907 58.3465 191.638 58.3465 177.737C58.3465 163.836 48.4725 152.566 36.2924 152.566C24.1122 152.566 14.2383 163.836 14.2383 177.737C14.2383 191.638 24.1122 202.907 36.2924 202.907Z" stroke="#CC9461" stroke-width="3" stroke-miterlimit="10"/>
<path d="M36.2925 174.494L36.3786 175.017C36.6062 176.365 37.6579 177.423 39.0047 177.644L39.5275 177.73L39.0047 177.817C37.6579 178.044 36.6001 179.096 36.3786 180.444L36.2925 180.967L36.2064 180.444C35.9789 179.096 34.9272 178.038 33.5804 177.817L33.0576 177.73L33.5804 177.644C34.9272 177.417 35.985 176.365 36.2064 175.017L36.2925 174.494Z" fill="#CC9461" stroke="#CC9461" stroke-miterlimit="10"/>
<path d="M420.345 166.951C420.345 159.143 414.018 152.812 406.212 152.812C398.407 152.812 392.08 159.143 392.08 166.951V188.516C392.08 196.325 398.407 202.655 406.212 202.655C414.018 202.655 420.345 196.325 420.345 188.516V166.951Z" stroke="#CC9461" stroke-width="3" stroke-miterlimit="10"/>
<path d="M406.212 202.907C418.392 202.907 428.266 191.638 428.266 177.737C428.266 163.836 418.392 152.566 406.212 152.566C394.032 152.566 384.158 163.836 384.158 177.737C384.158 191.638 394.032 202.907 406.212 202.907Z" stroke="#CC9461" stroke-width="3" stroke-miterlimit="10"/>
<path d="M406.212 174.494L406.299 175.017C406.526 176.365 407.578 177.423 408.925 177.644L409.447 177.73L408.925 177.817C407.578 178.044 406.52 179.096 406.299 180.444L406.212 180.967L406.126 180.444C405.899 179.096 404.847 178.038 403.5 177.817L402.978 177.73L403.5 177.644C404.847 177.417 405.905 176.365 406.126 175.017L406.212 174.494Z" fill="#CC9461" stroke="#CC9461" stroke-miterlimit="10"/>
<path d="M327.535 59.7301C327.535 51.9214 321.207 45.5913 313.402 45.5913C305.597 45.5913 299.269 51.9214 299.269 59.7301V81.295C299.269 89.1037 305.597 95.4338 313.402 95.4338C321.207 95.4338 327.535 89.1037 327.535 81.295V59.7301Z" stroke="#CC9461" stroke-width="3" stroke-miterlimit="10"/>
<path d="M313.402 95.6797C325.582 95.6797 335.456 84.4105 335.456 70.5093C335.456 56.608 325.582 45.3389 313.402 45.3389C301.222 45.3389 291.348 56.608 291.348 70.5093C291.348 84.4105 301.222 95.6797 313.402 95.6797Z" stroke="#CC9461" stroke-width="3" stroke-miterlimit="10"/>
<path d="M313.402 67.2671L313.488 67.7901C313.716 69.1375 314.767 70.1957 316.114 70.4172L316.637 70.5034L316.114 70.5895C314.767 70.8172 313.709 71.8693 313.488 73.2167L313.402 73.7397L313.316 73.2167C313.088 71.8693 312.037 70.811 310.69 70.5895L310.167 70.5034L310.69 70.4172C312.037 70.1896 313.094 69.1375 313.316 67.7901L313.402 67.2671Z" fill="#CC9461" stroke="#CC9461" stroke-miterlimit="10"/>
<path d="M4.39258 65.7042C4.39258 29.1453 36.2929 1.22461 36.2929 1.22461C36.2929 1.22461 68.1933 29.1453 68.1933 65.7042" stroke="#CC9461" stroke-width="3" stroke-miterlimit="10"/>
<path d="M24.8227 65.7039C24.8227 38.3678 -7.07764 17.9287 -7.07764 17.9287V65.7039H79.6628V17.9287C79.6628 17.9287 47.7624 38.3739 47.7624 65.7101" stroke="#CC9461" stroke-width="3" stroke-miterlimit="10"/>
<path d="M4.39258 73.2656C4.39258 109.825 36.2929 137.93 36.2929 137.93C36.2929 137.93 68.1933 110.009 68.1933 73.4502" stroke="#CC9461" stroke-width="3" stroke-miterlimit="10"/>
<path d="M24.8227 73.4502C24.8227 100.786 -7.07764 121.232 -7.07764 121.232V73.4502H79.6628V121.232C79.6628 121.232 47.7624 100.602 47.7624 73.2656" stroke="#CC9461" stroke-width="3" stroke-miterlimit="10"/>
<path d="M36.2925 1.22461V65.7042" stroke="#CC9461" stroke-width="3" stroke-miterlimit="10"/>
<path d="M36.2925 73.8315V138.311" stroke="#CC9461" stroke-width="3" stroke-miterlimit="10"/>
<path d="M97.166 174.046C97.166 137.487 129.066 109.566 129.066 109.566C129.066 109.566 160.967 137.487 160.967 174.046" stroke="#CC9461" stroke-width="3" stroke-miterlimit="10"/>
<path d="M117.597 174.046C117.597 146.709 85.6963 126.264 85.6963 126.264V174.046H172.437V126.264C172.437 126.264 140.536 146.709 140.536 174.046" stroke="#CC9461" stroke-width="3" stroke-miterlimit="10"/>
<path d="M97.166 181.607C97.166 218.166 129.066 246.272 129.066 246.272C129.066 246.272 160.967 218.351 160.967 181.792" stroke="#CC9461" stroke-width="3" stroke-miterlimit="10"/>
<path d="M117.597 181.792C117.597 209.128 85.6963 229.573 85.6963 229.573V181.792H172.437V229.573C172.437 229.573 140.536 208.944 140.536 181.607" stroke="#CC9461" stroke-width="3" stroke-miterlimit="10"/>
<path d="M129.066 109.566V174.046" stroke="#CC9461" stroke-width="3" stroke-miterlimit="10"/>
<path d="M129.066 182.167V246.647" stroke="#CC9461" stroke-width="3" stroke-miterlimit="10"/>
<path d="M188.734 65.7042C188.734 29.1453 220.635 1.22461 220.635 1.22461C220.635 1.22461 252.535 29.1453 252.535 65.7042" stroke="#CC9461" stroke-width="3" stroke-miterlimit="10"/>
<path d="M209.159 65.7042C209.159 38.3681 177.258 17.9229 177.258 17.9229V65.7042H263.999V17.929C263.999 17.929 232.098 38.3742 232.098 65.7104" stroke="#CC9461" stroke-width="3" stroke-miterlimit="10"/>
<path d="M188.734 73.2656C188.734 109.825 220.635 137.93 220.635 137.93C220.635 137.93 252.535 110.009 252.535 73.4502" stroke="#CC9461" stroke-width="3" stroke-miterlimit="10"/>
<path d="M209.159 73.4502C209.159 100.786 177.258 121.232 177.258 121.232V73.4502H263.999V121.232C263.999 121.232 232.098 100.602 232.098 73.2656" stroke="#CC9461" stroke-width="3" stroke-miterlimit="10"/>
<path d="M220.628 1.22461V65.7042" stroke="#CC9461" stroke-width="3" stroke-miterlimit="10"/>
<path d="M220.628 73.8315V138.311" stroke="#CC9461" stroke-width="3" stroke-miterlimit="10"/>
<path d="M281.508 174.046C281.508 137.487 313.408 109.566 313.408 109.566C313.408 109.566 345.308 137.487 345.308 174.046" stroke="#CC9461" stroke-width="3" stroke-miterlimit="10"/>
<path d="M301.932 174.046C301.932 146.709 270.032 126.264 270.032 126.264V174.046H356.772V126.264C356.772 126.264 324.872 146.709 324.872 174.046" stroke="#CC9461" stroke-width="3" stroke-miterlimit="10"/>
<path d="M281.508 181.607C281.508 218.166 313.408 246.272 313.408 246.272C313.408 246.272 345.308 218.351 345.308 181.792" stroke="#CC9461" stroke-width="3" stroke-miterlimit="10"/>
<path d="M301.932 181.792C301.932 209.128 270.032 229.573 270.032 229.573V181.792H356.772V229.573C356.772 229.573 324.872 208.944 324.872 181.607" stroke="#CC9461" stroke-width="3" stroke-miterlimit="10"/>
<path d="M313.402 109.566V174.046" stroke="#CC9461" stroke-width="3" stroke-miterlimit="10"/>
<path d="M313.402 182.167V246.647" stroke="#CC9461" stroke-width="3" stroke-miterlimit="10"/>
<path d="M142.59 57.6871C142.59 49.8785 136.263 43.5483 128.458 43.5483C120.652 43.5483 114.325 49.8785 114.325 57.6871V79.2521C114.325 87.0607 120.652 93.3908 128.458 93.3908C136.263 93.3908 142.59 87.0607 142.59 79.2521V57.6871Z" stroke="#CC9461" stroke-width="3" stroke-miterlimit="10"/>
<path d="M128.457 93.6431C140.638 93.6431 150.512 82.3739 150.512 68.4727C150.512 54.5714 140.638 43.3022 128.457 43.3022C116.277 43.3022 106.403 54.5714 106.403 68.4727C106.403 82.3739 116.277 93.6431 128.457 93.6431Z" stroke="#CC9461" stroke-width="3" stroke-miterlimit="10"/>
<path d="M128.458 65.23L128.544 65.753C128.771 67.1004 129.823 68.1586 131.17 68.3801L131.693 68.4663L131.17 68.5524C129.823 68.7801 128.765 69.8322 128.544 71.1796L128.458 71.7026L128.371 71.1796C128.144 69.8322 127.092 68.7739 125.745 68.5524L125.223 68.4663L125.745 68.3801C127.092 68.1525 128.15 67.1004 128.371 65.753L128.458 65.23Z" fill="#CC9461" stroke="#CC9461" stroke-miterlimit="10"/>
<path d="M375.727 281.643C375.727 245.084 407.627 217.163 407.627 217.163C407.627 217.163 439.527 245.084 439.527 281.643" stroke="#CC9461" stroke-width="3" stroke-miterlimit="10"/>
<path d="M396.157 281.643C396.157 254.307 364.257 233.861 364.257 233.861V281.643H450.997V233.861C450.997 233.861 419.097 254.307 419.097 281.643" stroke="#CC9461" stroke-width="3" stroke-miterlimit="10"/>
<path d="M407.627 217.163V281.643" stroke="#CC9461" stroke-width="3" stroke-miterlimit="10"/>
<path d="M5.77002 281.643C5.77002 245.084 37.6704 217.163 37.6704 217.163C37.6704 217.163 69.5707 245.084 69.5707 281.643" stroke="#CC9461" stroke-width="3" stroke-miterlimit="10"/>
<path d="M26.1943 281.643C26.1943 254.307 -5.70605 233.861 -5.70605 233.861V281.643H81.0344V233.861C81.0344 233.861 49.134 254.307 49.134 281.643" stroke="#CC9461" stroke-width="3" stroke-miterlimit="10"/>
<path d="M37.6641 217.163V281.643" stroke="#CC9461" stroke-width="3" stroke-miterlimit="10"/>
<path d="M190.105 281.643C190.105 245.084 222.006 217.163 222.006 217.163C222.006 217.163 253.906 245.084 253.906 281.643" stroke="#CC9461" stroke-width="3" stroke-miterlimit="10"/>
<path d="M210.53 281.643C210.53 254.307 178.63 233.861 178.63 233.861V281.643H265.37V233.861C265.37 233.861 233.47 254.307 233.47 281.643" stroke="#CC9461" stroke-width="3" stroke-miterlimit="10"/>
<path d="M222.006 217.163V281.643" stroke="#CC9461" stroke-width="3" stroke-miterlimit="10"/>
<path d="M929.865 65.7042C929.865 29.1453 961.766 1.22461 961.766 1.22461C961.766 1.22461 993.666 29.1453 993.666 65.7042" stroke="#CC9461" stroke-width="3" stroke-miterlimit="10"/>
<path d="M950.289 65.7042C950.289 38.3681 918.389 17.9229 918.389 17.9229V65.7042H1005.13V17.929C1005.13 17.929 973.229 38.3742 973.229 65.7104" stroke="#CC9461" stroke-width="3" stroke-miterlimit="10"/>
<path d="M929.865 73.2656C929.865 109.825 961.766 137.93 961.766 137.93C961.766 137.93 993.666 110.009 993.666 73.4502" stroke="#CC9461" stroke-width="3" stroke-miterlimit="10"/>
<path d="M950.289 73.4502C950.289 100.786 918.389 121.232 918.389 121.232V73.4502H1005.13V121.232C1005.13 121.232 973.229 100.602 973.229 73.2656" stroke="#CC9461" stroke-width="3" stroke-miterlimit="10"/>
<path d="M961.759 1.22461V65.7042" stroke="#CC9461" stroke-width="3" stroke-miterlimit="10"/>
<path d="M961.759 73.8315V138.311" stroke="#CC9461" stroke-width="3" stroke-miterlimit="10"/>
<path d="M1022.64 174.046C1022.64 137.487 1054.54 109.566 1054.54 109.566C1054.54 109.566 1086.44 137.487 1086.44 174.046" stroke="#CC9461" stroke-width="3" stroke-miterlimit="10"/>
<path d="M1043.06 174.046C1043.06 146.709 1011.16 126.264 1011.16 126.264V174.046H1097.9V126.264C1097.9 126.264 1066 146.709 1066 174.046" stroke="#CC9461" stroke-width="3" stroke-miterlimit="10"/>
<path d="M1022.64 181.607C1022.64 218.166 1054.54 246.272 1054.54 246.272C1054.54 246.272 1086.44 218.351 1086.44 181.792" stroke="#CC9461" stroke-width="3" stroke-miterlimit="10"/>
<path d="M1043.06 181.792C1043.06 209.128 1011.16 229.573 1011.16 229.573V181.792H1097.9V229.573C1097.9 229.573 1066 208.944 1066 181.607" stroke="#CC9461" stroke-width="3" stroke-miterlimit="10"/>
<path d="M1054.53 109.566V174.046" stroke="#CC9461" stroke-width="3" stroke-miterlimit="10"/>
<path d="M1054.53 182.167V246.647" stroke="#CC9461" stroke-width="3" stroke-miterlimit="10"/>
<path d="M1068.06 57.6871C1068.06 49.8785 1061.74 43.5483 1053.93 43.5483C1046.12 43.5483 1039.8 49.8785 1039.8 57.6871V79.2521C1039.8 87.0607 1046.12 93.3908 1053.93 93.3908C1061.74 93.3908 1068.06 87.0607 1068.06 79.2521V57.6871Z" stroke="#CC9461" stroke-width="3" stroke-miterlimit="10"/>
<path d="M1053.93 93.6431C1066.11 93.6431 1075.98 82.3739 1075.98 68.4727C1075.98 54.5714 1066.11 43.3022 1053.93 43.3022C1041.75 43.3022 1031.88 54.5714 1031.88 68.4727C1031.88 82.3739 1041.75 93.6431 1053.93 93.6431Z" stroke="#CC9461" stroke-width="3" stroke-miterlimit="10"/>
<path d="M1053.93 65.2305L1054.02 65.7534C1054.24 67.1009 1055.3 68.1591 1056.64 68.3806L1057.17 68.4668L1056.64 68.5529C1055.3 68.7805 1054.24 69.8326 1054.02 71.1801L1053.93 71.703L1053.84 71.1801C1053.62 69.8326 1052.56 68.7744 1051.22 68.5529L1050.7 68.4668L1051.22 68.3806C1052.56 68.153 1053.62 67.1009 1053.84 65.7534L1053.93 65.2305Z" fill="#CC9461" stroke="#CC9461" stroke-miterlimit="10"/>
<path d="M791.643 166.951C791.643 159.143 785.315 152.812 777.51 152.812C769.704 152.812 763.377 159.143 763.377 166.951V188.516C763.377 196.325 769.704 202.655 777.51 202.655C785.315 202.655 791.643 196.325 791.643 188.516V166.951Z" stroke="#CC9461" stroke-width="3" stroke-miterlimit="10"/>
<path d="M777.51 202.907C789.69 202.907 799.564 191.638 799.564 177.737C799.564 163.836 789.69 152.566 777.51 152.566C765.33 152.566 755.456 163.836 755.456 177.737C755.456 191.638 765.33 202.907 777.51 202.907Z" stroke="#CC9461" stroke-width="3" stroke-miterlimit="10"/>
<path d="M777.51 174.494L777.596 175.017C777.824 176.365 778.875 177.423 780.222 177.644L780.745 177.73L780.222 177.817C778.875 178.044 777.817 179.096 777.596 180.444L777.51 180.967L777.424 180.444C777.196 179.096 776.145 178.038 774.798 177.817L774.275 177.73L774.798 177.644C776.145 177.417 777.202 176.365 777.424 175.017L777.51 174.494Z" fill="#CC9461" stroke="#CC9461" stroke-miterlimit="10"/>
<path d="M605.929 166.951C605.929 159.143 599.602 152.812 591.796 152.812C583.991 152.812 577.664 159.143 577.664 166.951V188.516C577.664 196.325 583.991 202.655 591.796 202.655C599.602 202.655 605.929 196.325 605.929 188.516V166.951Z" stroke="#CC9461" stroke-width="3" stroke-miterlimit="10"/>
<path d="M591.803 202.907C603.983 202.907 613.857 191.638 613.857 177.737C613.857 163.836 603.983 152.566 591.803 152.566C579.623 152.566 569.749 163.836 569.749 177.737C569.749 191.638 579.623 202.907 591.803 202.907Z" stroke="#CC9461" stroke-width="3" stroke-miterlimit="10"/>
<path d="M591.803 174.494L591.889 175.017C592.116 176.365 593.168 177.423 594.515 177.644L595.038 177.73L594.515 177.817C593.168 178.044 592.11 179.096 591.889 180.444L591.803 180.967L591.717 180.444C591.489 179.096 590.437 178.038 589.091 177.817L588.568 177.73L589.091 177.644C590.437 177.417 591.495 176.365 591.717 175.017L591.803 174.494Z" fill="#CC9461" stroke="#CC9461" stroke-miterlimit="10"/>
<path d="M975.855 166.951C975.855 159.143 969.528 152.812 961.723 152.812C953.917 152.812 947.59 159.143 947.59 166.951V188.516C947.59 196.325 953.917 202.655 961.723 202.655C969.528 202.655 975.855 196.325 975.855 188.516V166.951Z" stroke="#CC9461" stroke-width="3" stroke-miterlimit="10"/>
<path d="M961.723 202.907C973.903 202.907 983.777 191.638 983.777 177.737C983.777 163.836 973.903 152.566 961.723 152.566C949.542 152.566 939.668 163.836 939.668 177.737C939.668 191.638 949.542 202.907 961.723 202.907Z" stroke="#CC9461" stroke-width="3" stroke-miterlimit="10"/>
<path d="M961.723 174.494L961.809 175.017C962.036 176.365 963.088 177.423 964.435 177.644L964.958 177.73L964.435 177.817C963.088 178.044 962.03 179.096 961.809 180.444L961.723 180.967L961.637 180.444C961.409 179.096 960.357 178.038 959.011 177.817L958.488 177.73L959.011 177.644C960.357 177.417 961.415 176.365 961.637 175.017L961.723 174.494Z" fill="#CC9461" stroke="#CC9461" stroke-miterlimit="10"/>
<path d="M883.045 59.7301C883.045 51.9214 876.717 45.5913 868.912 45.5913C861.107 45.5913 854.779 51.9214 854.779 59.7301V81.295C854.779 89.1037 861.107 95.4338 868.912 95.4338C876.717 95.4338 883.045 89.1037 883.045 81.295V59.7301Z" stroke="#CC9461" stroke-width="3" stroke-miterlimit="10"/>
<path d="M868.912 95.6797C881.092 95.6797 890.966 84.4105 890.966 70.5093C890.966 56.608 881.092 45.3389 868.912 45.3389C856.732 45.3389 846.858 56.608 846.858 70.5093C846.858 84.4105 856.732 95.6797 868.912 95.6797Z" stroke="#CC9461" stroke-width="3" stroke-miterlimit="10"/>
<path d="M868.912 67.2671L868.998 67.7901C869.226 69.1375 870.278 70.1957 871.624 70.4172L872.147 70.5034L871.624 70.5895C870.278 70.8172 869.22 71.8693 868.998 73.2167L868.912 73.7397L868.826 73.2167C868.599 71.8693 867.547 70.811 866.2 70.5895L865.677 70.5034L866.2 70.4172C867.547 70.1896 868.605 69.1375 868.826 67.7901L868.912 67.2671Z" fill="#CC9461" stroke="#CC9461" stroke-miterlimit="10"/>
<path d="M559.902 65.7042C559.902 29.1453 591.803 1.22461 591.803 1.22461C591.803 1.22461 623.703 29.1453 623.703 65.7042" stroke="#CC9461" stroke-width="3" stroke-miterlimit="10"/>
<path d="M580.327 65.7042C580.327 38.3681 548.426 17.9229 548.426 17.9229V65.7042H635.167V17.929C635.167 17.929 603.266 38.3742 603.266 65.7104" stroke="#CC9461" stroke-width="3" stroke-miterlimit="10"/>
<path d="M559.902 73.2656C559.902 109.825 591.803 137.93 591.803 137.93C591.803 137.93 623.703 110.009 623.703 73.4502" stroke="#CC9461" stroke-width="3" stroke-miterlimit="10"/>
<path d="M580.327 73.4502C580.327 100.786 548.426 121.232 548.426 121.232V73.4502H635.167V121.232C635.167 121.232 603.266 100.602 603.266 73.2656" stroke="#CC9461" stroke-width="3" stroke-miterlimit="10"/>
<path d="M591.803 1.22461V65.7042" stroke="#CC9461" stroke-width="3" stroke-miterlimit="10"/>
<path d="M591.803 73.8315V138.311" stroke="#CC9461" stroke-width="3" stroke-miterlimit="10"/>
<path d="M652.676 174.046C652.676 137.487 684.576 109.566 684.576 109.566C684.576 109.566 716.476 137.487 716.476 174.046" stroke="#CC9461" stroke-width="3" stroke-miterlimit="10"/>
<path d="M673.101 174.046C673.101 146.709 641.2 126.264 641.2 126.264V174.046H727.941V126.264C727.941 126.264 696.04 146.709 696.04 174.046" stroke="#CC9461" stroke-width="3" stroke-miterlimit="10"/>
<path d="M652.676 181.607C652.676 218.166 684.576 246.272 684.576 246.272C684.576 246.272 716.476 218.351 716.476 181.792" stroke="#CC9461" stroke-width="3" stroke-miterlimit="10"/>
<path d="M673.101 181.792C673.101 209.128 641.2 229.573 641.2 229.573V181.792H727.941V229.573C727.941 229.573 696.04 208.944 696.04 181.607" stroke="#CC9461" stroke-width="3" stroke-miterlimit="10"/>
<path d="M684.576 109.566V174.046" stroke="#CC9461" stroke-width="3" stroke-miterlimit="10"/>
<path d="M684.576 182.167V246.647" stroke="#CC9461" stroke-width="3" stroke-miterlimit="10"/>
<path d="M744.238 65.7042C744.238 29.1453 776.139 1.22461 776.139 1.22461C776.139 1.22461 808.039 29.1453 808.039 65.7042" stroke="#CC9461" stroke-width="3" stroke-miterlimit="10"/>
<path d="M764.668 65.7042C764.668 38.3681 732.768 17.9229 732.768 17.9229V65.7042H819.508V17.929C819.508 17.929 787.608 38.3742 787.608 65.7104" stroke="#CC9461" stroke-width="3" stroke-miterlimit="10"/>
<path d="M744.238 73.2656C744.238 109.825 776.139 137.93 776.139 137.93C776.139 137.93 808.039 110.009 808.039 73.4502" stroke="#CC9461" stroke-width="3" stroke-miterlimit="10"/>
<path d="M764.668 73.4502C764.668 100.786 732.768 121.232 732.768 121.232V73.4502H819.508V121.232C819.508 121.232 787.608 100.602 787.608 73.2656" stroke="#CC9461" stroke-width="3" stroke-miterlimit="10"/>
<path d="M776.138 1.22461V65.7042" stroke="#CC9461" stroke-width="3" stroke-miterlimit="10"/>
<path d="M776.138 73.8315V138.311" stroke="#CC9461" stroke-width="3" stroke-miterlimit="10"/>
<path d="M837.012 174.046C837.012 137.487 868.912 109.566 868.912 109.566C868.912 109.566 900.812 137.487 900.812 174.046" stroke="#CC9461" stroke-width="3" stroke-miterlimit="10"/>
<path d="M857.442 174.046C857.442 146.709 825.542 126.264 825.542 126.264V174.046H912.282V126.264C912.282 126.264 880.382 146.709 880.382 174.046" stroke="#CC9461" stroke-width="3" stroke-miterlimit="10"/>
<path d="M837.012 181.607C837.012 218.166 868.912 246.272 868.912 246.272C868.912 246.272 900.812 218.351 900.812 181.792" stroke="#CC9461" stroke-width="3" stroke-miterlimit="10"/>
<path d="M857.442 181.792C857.442 209.128 825.542 229.573 825.542 229.573V181.792H912.282V229.573C912.282 229.573 880.382 208.944 880.382 181.607" stroke="#CC9461" stroke-width="3" stroke-miterlimit="10"/>
<path d="M868.912 109.566V174.046" stroke="#CC9461" stroke-width="3" stroke-miterlimit="10"/>
<path d="M868.912 182.167V246.647" stroke="#CC9461" stroke-width="3" stroke-miterlimit="10"/>
<path d="M698.1 57.6871C698.1 49.8785 691.773 43.5483 683.967 43.5483C676.162 43.5483 669.834 49.8785 669.834 57.6871V79.2521C669.834 87.0607 676.162 93.3908 683.967 93.3908C691.773 93.3908 698.1 87.0607 698.1 79.2521V57.6871Z" stroke="#CC9461" stroke-width="3" stroke-miterlimit="10"/>
<path d="M683.968 93.6431C696.148 93.6431 706.022 82.3739 706.022 68.4727C706.022 54.5714 696.148 43.3022 683.968 43.3022C671.788 43.3022 661.914 54.5714 661.914 68.4727C661.914 82.3739 671.788 93.6431 683.968 93.6431Z" stroke="#CC9461" stroke-width="3" stroke-miterlimit="10"/>
<path d="M683.967 65.23L684.053 65.753C684.281 67.1004 685.333 68.1586 686.68 68.3801L687.202 68.4663L686.68 68.5524C685.333 68.7801 684.275 69.8322 684.053 71.1796L683.967 71.7026L683.881 71.1796C683.654 69.8322 682.602 68.7739 681.255 68.5524L680.732 68.4663L681.255 68.3801C682.602 68.1525 683.66 67.1004 683.881 65.753L683.967 65.23Z" fill="#CC9461" stroke="#CC9461" stroke-miterlimit="10"/>
<path d="M931.236 281.643C931.236 245.084 963.137 217.163 963.137 217.163C963.137 217.163 995.037 245.084 995.037 281.643" stroke="#CC9461" stroke-width="3" stroke-miterlimit="10"/>
<path d="M951.667 281.643C951.667 254.307 919.767 233.861 919.767 233.861V281.643H1006.51V233.861C1006.51 233.861 974.607 254.307 974.607 281.643" stroke="#CC9461" stroke-width="3" stroke-miterlimit="10"/>
<path d="M963.137 217.163V281.643" stroke="#CC9461" stroke-width="3" stroke-miterlimit="10"/>
<path d="M561.274 281.643C561.274 245.084 593.174 217.163 593.174 217.163C593.174 217.163 625.075 245.084 625.075 281.643" stroke="#CC9461" stroke-width="3" stroke-miterlimit="10"/>
<path d="M581.704 281.643C581.704 254.307 549.804 233.861 549.804 233.861V281.643H636.544V233.861C636.544 233.861 604.644 254.307 604.644 281.643" stroke="#CC9461" stroke-width="3" stroke-miterlimit="10"/>
<path d="M593.174 217.163V281.643" stroke="#CC9461" stroke-width="3" stroke-miterlimit="10"/>
<path d="M745.616 281.643C745.616 245.084 777.516 217.163 777.516 217.163C777.516 217.163 809.416 245.084 809.416 281.643" stroke="#CC9461" stroke-width="3" stroke-miterlimit="10"/>
<path d="M766.04 281.643C766.04 254.307 734.14 233.861 734.14 233.861V281.643H820.88V233.861C820.88 233.861 788.98 254.307 788.98 281.643" stroke="#CC9461" stroke-width="3" stroke-miterlimit="10"/>
<path d="M777.51 217.163V281.643" stroke="#CC9461" stroke-width="3" stroke-miterlimit="10"/>
<path d="M1301.03 65.7042C1301.03 29.1453 1332.93 1.22461 1332.93 1.22461C1332.93 1.22461 1364.83 29.1453 1364.83 65.7042" stroke="#CC9461" stroke-width="3" stroke-miterlimit="10"/>
<path d="M1321.46 65.7042C1321.46 38.3681 1289.56 17.9229 1289.56 17.9229V65.7042H1376.3V17.929C1376.3 17.929 1344.4 38.3742 1344.4 65.7104" stroke="#CC9461" stroke-width="3" stroke-miterlimit="10"/>
<path d="M1301.03 73.2656C1301.03 109.825 1332.93 137.93 1332.93 137.93C1332.93 137.93 1364.83 110.009 1364.83 73.4502" stroke="#CC9461" stroke-width="3" stroke-miterlimit="10"/>
<path d="M1321.46 73.4502C1321.46 100.786 1289.56 121.232 1289.56 121.232V73.4502H1376.3V121.232C1376.3 121.232 1344.4 100.602 1344.4 73.2656" stroke="#CC9461" stroke-width="3" stroke-miterlimit="10"/>
<path d="M1332.93 1.22461V65.7042" stroke="#CC9461" stroke-width="3" stroke-miterlimit="10"/>
<path d="M1332.93 73.8315V138.311" stroke="#CC9461" stroke-width="3" stroke-miterlimit="10"/>
<path d="M1393.81 174.046C1393.81 137.487 1425.71 109.566 1425.71 109.566C1425.71 109.566 1457.61 137.487 1457.61 174.046" stroke="#CC9461" stroke-width="3" stroke-miterlimit="10"/>
<path d="M1414.24 174.046C1414.24 146.709 1382.34 126.264 1382.34 126.264V174.046H1469.08V126.264C1469.08 126.264 1437.18 146.709 1437.18 174.046" stroke="#CC9461" stroke-width="3" stroke-miterlimit="10"/>
<path d="M1393.81 181.607C1393.81 218.166 1425.71 246.272 1425.71 246.272C1425.71 246.272 1457.61 218.351 1457.61 181.792" stroke="#CC9461" stroke-width="3" stroke-miterlimit="10"/>
<path d="M1414.24 181.792C1414.24 209.128 1382.34 229.573 1382.34 229.573V181.792H1469.08V229.573C1469.08 229.573 1437.18 208.944 1437.18 181.607" stroke="#CC9461" stroke-width="3" stroke-miterlimit="10"/>
<path d="M1425.71 109.566V174.046" stroke="#CC9461" stroke-width="3" stroke-miterlimit="10"/>
<path d="M1425.71 182.167V246.647" stroke="#CC9461" stroke-width="3" stroke-miterlimit="10"/>
<path d="M1439.23 57.6871C1439.23 49.8785 1432.9 43.5483 1425.1 43.5483C1417.29 43.5483 1410.97 49.8785 1410.97 57.6871V79.2521C1410.97 87.0607 1417.29 93.3908 1425.1 93.3908C1432.9 93.3908 1439.23 87.0607 1439.23 79.2521V57.6871Z" stroke="#CC9461" stroke-width="3" stroke-miterlimit="10"/>
<path d="M1425.1 93.6431C1437.28 93.6431 1447.15 82.3739 1447.15 68.4727C1447.15 54.5714 1437.28 43.3022 1425.1 43.3022C1412.92 43.3022 1403.04 54.5714 1403.04 68.4727C1403.04 82.3739 1412.92 93.6431 1425.1 93.6431Z" stroke="#CC9461" stroke-width="3" stroke-miterlimit="10"/>
<path d="M1425.1 65.2305L1425.18 65.7534C1425.41 67.1009 1426.46 68.1591 1427.81 68.3806L1428.33 68.4668L1427.81 68.5529C1426.46 68.7805 1425.41 69.8326 1425.18 71.1801L1425.1 71.703L1425.01 71.1801C1424.78 69.8326 1423.73 68.7744 1422.39 68.5529L1421.86 68.4668L1422.39 68.3806C1423.73 68.153 1424.79 67.1009 1425.01 65.7534L1425.1 65.2305Z" fill="#CC9461" stroke="#CC9461" stroke-miterlimit="10"/>
<path d="M1162.82 166.951C1162.82 159.143 1156.49 152.812 1148.68 152.812C1140.88 152.812 1134.55 159.143 1134.55 166.951V188.516C1134.55 196.325 1140.88 202.655 1148.68 202.655C1156.49 202.655 1162.82 196.325 1162.82 188.516V166.951Z" stroke="#CC9461" stroke-width="3" stroke-miterlimit="10"/>
<path d="M1148.68 202.907C1160.86 202.907 1170.74 191.638 1170.74 177.737C1170.74 163.836 1160.86 152.566 1148.68 152.566C1136.5 152.566 1126.63 163.836 1126.63 177.737C1126.63 191.638 1136.5 202.907 1148.68 202.907Z" stroke="#CC9461" stroke-width="3" stroke-miterlimit="10"/>
<path d="M1148.68 174.494L1148.77 175.017C1149 176.365 1150.05 177.423 1151.4 177.644L1151.92 177.73L1151.4 177.817C1150.05 178.044 1148.99 179.096 1148.77 180.444L1148.68 180.967L1148.6 180.444C1148.37 179.096 1147.32 178.038 1145.97 177.817L1145.45 177.73L1145.97 177.644C1147.32 177.417 1148.38 176.365 1148.6 175.017L1148.68 174.494Z" fill="#CC9461" stroke="#CC9461" stroke-miterlimit="10"/>
<path d="M1347.02 166.951C1347.02 159.143 1340.7 152.812 1332.89 152.812C1325.09 152.812 1318.76 159.143 1318.76 166.951V188.516C1318.76 196.325 1325.09 202.655 1332.89 202.655C1340.7 202.655 1347.02 196.325 1347.02 188.516V166.951Z" stroke="#CC9461" stroke-width="3" stroke-miterlimit="10"/>
<path d="M1332.9 202.907C1345.08 202.907 1354.95 191.638 1354.95 177.737C1354.95 163.836 1345.08 152.566 1332.9 152.566C1320.72 152.566 1310.84 163.836 1310.84 177.737C1310.84 191.638 1320.72 202.907 1332.9 202.907Z" stroke="#CC9461" stroke-width="3" stroke-miterlimit="10"/>
<path d="M1332.9 174.494L1332.98 175.017C1333.21 176.365 1334.26 177.423 1335.61 177.644L1336.13 177.73L1335.61 177.817C1334.26 178.044 1333.2 179.096 1332.98 180.444L1332.9 180.967L1332.81 180.444C1332.58 179.096 1331.53 178.038 1330.18 177.817L1329.66 177.73L1330.18 177.644C1331.53 177.417 1332.59 176.365 1332.81 175.017L1332.9 174.494Z" fill="#CC9461" stroke="#CC9461" stroke-miterlimit="10"/>
<path d="M1254.21 59.7301C1254.21 51.9214 1247.89 45.5913 1240.08 45.5913C1232.27 45.5913 1225.95 51.9214 1225.95 59.7301V81.295C1225.95 89.1037 1232.27 95.4338 1240.08 95.4338C1247.89 95.4338 1254.21 89.1037 1254.21 81.295V59.7301Z" stroke="#CC9461" stroke-width="3" stroke-miterlimit="10"/>
<path d="M1240.08 95.6797C1252.26 95.6797 1262.13 84.4105 1262.13 70.5093C1262.13 56.608 1252.26 45.3389 1240.08 45.3389C1227.9 45.3389 1218.03 56.608 1218.03 70.5093C1218.03 84.4105 1227.9 95.6797 1240.08 95.6797Z" stroke="#CC9461" stroke-width="3" stroke-miterlimit="10"/>
<path d="M1240.08 67.2671L1240.17 67.7901C1240.39 69.1375 1241.45 70.1957 1242.79 70.4172L1243.32 70.5034L1242.79 70.5895C1241.45 70.8172 1240.39 71.8693 1240.17 73.2167L1240.08 73.7397L1239.99 73.2167C1239.77 71.8693 1238.71 70.811 1237.37 70.5895L1236.85 70.5034L1237.37 70.4172C1238.71 70.1896 1239.77 69.1375 1239.99 67.7901L1240.08 67.2671Z" fill="#CC9461" stroke="#CC9461" stroke-miterlimit="10"/>
<path d="M1115.41 65.7042C1115.41 29.1453 1147.31 1.22461 1147.31 1.22461C1147.31 1.22461 1179.21 29.1453 1179.21 65.7042" stroke="#CC9461" stroke-width="3" stroke-miterlimit="10"/>
<path d="M1135.84 65.7042C1135.84 38.3681 1103.94 17.9229 1103.94 17.9229V65.7042H1190.68V17.929C1190.68 17.929 1158.78 38.3742 1158.78 65.7104" stroke="#CC9461" stroke-width="3" stroke-miterlimit="10"/>
<path d="M1115.41 73.2656C1115.41 109.825 1147.31 137.93 1147.31 137.93C1147.31 137.93 1179.21 110.009 1179.21 73.4502" stroke="#CC9461" stroke-width="3" stroke-miterlimit="10"/>
<path d="M1135.84 73.4502C1135.84 100.786 1103.94 121.232 1103.94 121.232V73.4502H1190.68V121.232C1190.68 121.232 1158.78 100.602 1158.78 73.2656" stroke="#CC9461" stroke-width="3" stroke-miterlimit="10"/>
<path d="M1147.31 1.22461V65.7042" stroke="#CC9461" stroke-width="3" stroke-miterlimit="10"/>
<path d="M1147.31 73.8315V138.311" stroke="#CC9461" stroke-width="3" stroke-miterlimit="10"/>
<path d="M1208.19 174.046C1208.19 137.487 1240.09 109.566 1240.09 109.566C1240.09 109.566 1271.99 137.487 1271.99 174.046" stroke="#CC9461" stroke-width="3" stroke-miterlimit="10"/>
<path d="M1228.61 174.046C1228.61 146.709 1196.71 126.264 1196.71 126.264V174.046H1283.45V126.264C1283.45 126.264 1251.55 146.709 1251.55 174.046" stroke="#CC9461" stroke-width="3" stroke-miterlimit="10"/>
<path d="M1208.19 181.607C1208.19 218.166 1240.09 246.272 1240.09 246.272C1240.09 246.272 1271.99 218.351 1271.99 181.792" stroke="#CC9461" stroke-width="3" stroke-miterlimit="10"/>
<path d="M1228.61 181.792C1228.61 209.128 1196.71 229.573 1196.71 229.573V181.792H1283.45V229.573C1283.45 229.573 1251.55 208.944 1251.55 181.607" stroke="#CC9461" stroke-width="3" stroke-miterlimit="10"/>
<path d="M1240.08 109.566V174.046" stroke="#CC9461" stroke-width="3" stroke-miterlimit="10"/>
<path d="M1240.08 182.167V246.647" stroke="#CC9461" stroke-width="3" stroke-miterlimit="10"/>
<path d="M1302.41 281.643C1302.41 245.084 1334.31 217.163 1334.31 217.163C1334.31 217.163 1366.21 245.084 1366.21 281.643" stroke="#CC9461" stroke-width="3" stroke-miterlimit="10"/>
<path d="M1322.84 281.643C1322.84 254.307 1290.94 233.861 1290.94 233.861V281.643H1377.68V233.861C1377.68 233.861 1345.78 254.307 1345.78 281.643" stroke="#CC9461" stroke-width="3" stroke-miterlimit="10"/>
<path d="M1334.31 217.163V281.643" stroke="#CC9461" stroke-width="3" stroke-miterlimit="10"/>
<path d="M1116.78 281.643C1116.78 245.084 1148.68 217.163 1148.68 217.163C1148.68 217.163 1180.58 245.084 1180.58 281.643" stroke="#CC9461" stroke-width="3" stroke-miterlimit="10"/>
<path d="M1137.21 281.643C1137.21 254.307 1105.31 233.861 1105.31 233.861V281.643H1192.05V233.861C1192.05 233.861 1160.15 254.307 1160.15 281.643" stroke="#CC9461" stroke-width="3" stroke-miterlimit="10"/>
<path d="M1148.68 217.163V281.643" stroke="#CC9461" stroke-width="3" stroke-miterlimit="10"/>
</g>
<defs>
<clipPath id="clip0_123_640">
<rect width="1478" height="312" fill="white" transform="translate(-8)"/>
</clipPath>
</defs>
</svg>
